<svg width="995" height="1115" viewBox="0 0 995 1115" fill="none" xmlns="http://www.w3.org/2000/svg">
<path opacity="0.5" d="M318.635 40.6942C198.697 141.217 180.111 331.298 98.8812 471.527C70.6044 520.322 34.0669 563.992 15.0039 618.123C-28.7616 742.026 31.4722 882.572 112.093 980.981C150.537 1027.93 195.441 1070.94 249.77 1090.72C291.55 1105.94 336.348 1106.57 380.325 1106.97L1150.79 1114.9C1236.81 1115.77 1332.39 1112.62 1394.24 1046.21C1436.87 1000.48 1454.18 933.692 1468.88 869.944C1486.93 791.613 1503.3 706.546 1475.2 631.94C1443.12 546.582 1361.96 498.21 1311.55 424.555C1229.74 305.223 1231.62 124.731 1127.44 29.4664C1078.8 -14.9959 1014.62 -32.4321 952.084 -41.1502C834.184 -57.6089 722.507 -26.5408 606.725 -30.8734C507.756 -34.572 400.739 -28.1259 318.635 40.6942Z" fill="url(#paint0_linear_1027_2277)"/>
<defs>
<linearGradient id="paint0_linear_1027_2277" x1="745.308" y1="-46" x2="745.308" y2="1115" gradientUnits="userSpaceOnUse">
<stop stop-color="#587BFF"/>
<stop offset="1" stop-color="#B2BCE2"/>
</linearGradient>
</defs>
</svg>
