<svg width="618" height="780" viewBox="0 0 618 780" fill="none" xmlns="http://www.w3.org/2000/svg">
<path opacity="0.24" d="M183.078 688.613C136.629 693.283 88.7548 698.419 47.8814 721.264C42.4106 724.328 36.8561 727.942 33.8377 733.458C27.7801 744.553 34.6552 759.177 45.3242 765.855C55.9932 772.533 69.1565 773.294 81.712 773.844C305.279 783.586 529.181 779.761 752.937 775.957C817.915 774.858 883.921 773.59 946.195 754.718C957.388 751.337 969.692 746.265 973.905 735.212C979.418 720.757 966.841 704.737 952.169 700.236C937.496 695.735 921.839 699.095 906.663 701.06C853.968 707.886 800.811 697.446 748.347 689.099C645.639 672.784 539.075 659.512 435.047 657.039C399.581 656.215 369.293 668.515 334.582 673.376C284.465 680.434 233.468 683.541 183.078 688.613Z" fill="#505F98"/>
<path d="M0.36918 255.326L116.199 19.4083L185.185 53.1897L69.3555 289.108L0.36918 255.326Z" fill="white"/>
<path d="M27.2144 248.055L41.3278 219.22L87.792 241.903L73.6785 270.738L27.2144 248.055Z" fill="#505F98"/>
<path d="M27.2144 248.055L41.3278 219.22L87.792 241.903L73.6785 270.738L27.2144 248.055Z" fill="url(#paint0_linear_1027_2278)"/>
<path d="M41.3296 219.445L55.4431 190.61L101.907 213.293L87.7937 242.128L41.3296 219.445Z" fill="#505F98"/>
<path d="M41.3296 219.445L55.4431 190.61L101.907 213.293L87.7937 242.128L41.3296 219.445Z" fill="url(#paint1_linear_1027_2278)"/>
<path d="M55.4263 190.826L69.5397 161.991L116.004 184.674L101.89 213.509L55.4263 190.826Z" fill="#505F98"/>
<path d="M55.4263 190.826L69.5397 161.991L116.004 184.674L101.89 213.509L55.4263 190.826Z" fill="url(#paint2_linear_1027_2278)"/>
<path d="M69.563 162.237L83.6765 133.402L130.141 156.085L116.027 184.92L69.563 162.237Z" fill="#505F98"/>
<path d="M69.563 162.237L83.6765 133.402L130.141 156.085L116.027 184.92L69.563 162.237Z" fill="url(#paint3_linear_1027_2278)"/>
<path d="M83.6689 133.599L97.7824 104.764L144.247 127.447L130.133 156.282L83.6689 133.599Z" fill="#505F98"/>
<path d="M97.7842 105.01L111.898 76.1754L158.362 98.8578L144.248 127.693L97.7842 105.01Z" fill="#505F98"/>
<path d="M111.881 76.3912L125.994 47.5563L172.458 70.2387L158.345 99.0736L111.881 76.3912Z" fill="#505F98"/>
<path d="M96.1963 108.598L110.31 79.7633L156.774 102.446L142.66 131.281L96.1963 108.598Z" fill="url(#paint4_linear_1027_2278)"/>
<path d="M110.321 79.9695L124.435 51.1346L170.899 73.817L156.785 102.652L110.321 79.9695Z" fill="url(#paint5_linear_1027_2278)"/>
<rect x="410.837" y="573" width="98.0679" height="82" fill="#505F98"/>
<rect x="410.837" y="573" width="98.0679" height="82" fill="url(#paint6_linear_1027_2278)"/>
<rect x="202.693" y="231" width="518.359" height="355" rx="9.37" fill="#505F98"/>
<path opacity="0.65" d="M704.04 260.438V554.562C704.057 559.443 702.133 564.129 698.693 567.588C695.253 571.047 690.579 572.994 685.703 573H234.039C229.165 572.989 224.495 571.04 221.056 567.582C217.617 564.125 215.691 559.441 215.702 554.562V260.438C215.691 255.559 217.617 250.875 221.056 247.418C224.495 243.96 229.165 242.011 234.039 242H685.703C690.579 242.006 695.253 243.953 698.693 247.412C702.133 250.871 704.057 255.557 704.04 260.438Z" fill="url(#paint7_linear_1027_2278)"/>
<rect x="365.806" y="645" width="206.143" height="21" fill="#505F98"/>
<rect x="410.837" y="633" width="98.0679" height="12" fill="url(#paint8_linear_1027_2278)"/>
<path fill-rule="evenodd" clip-rule="evenodd" d="M565.945 59.2411V79.7145L553.236 79.8193C552 89.3456 548.376 98.4104 542.698 106.181L553.552 117.351L538.672 131.6L527.986 120.578C521.398 125.062 513.962 128.17 506.13 129.714V143H485.559V130.029C476.775 128.76 468.402 125.497 461.09 120.494L452.153 129.316L437.589 114.647L446.463 105.993C440.876 98.2193 437.313 89.191 436.093 79.7145H421.845V59.2411H436.599C438.428 51.0933 442.024 43.4409 447.137 36.8187L438.896 28.3318L453.776 14.0821L462.207 22.8205C469.177 18.2143 477.101 15.2276 485.391 14.0821V0H505.961V14.3964C514.33 16.0545 522.239 19.493 529.146 24.476L539.684 14.1659L554.163 28.709L543.625 39.1867C547.757 45.2671 550.689 52.0725 552.266 59.2411H565.945ZM459.804 72.1496C459.781 91.211 475.304 106.682 494.475 106.705C503.687 106.733 512.53 103.113 519.052 96.6445C525.573 90.1761 529.236 81.3922 529.23 72.2334C529.253 53.1721 513.731 37.7011 494.559 37.6779C475.388 37.6548 459.828 53.0883 459.804 72.1496Z" fill="#505F98"/>
<path fill-rule="evenodd" clip-rule="evenodd" d="M641.997 93.3542L641.079 105.396L633.567 104.938C632.44 110.475 629.936 115.641 626.284 119.958L632.148 127.021L622.799 134.729L617.039 127.792C612.985 130.13 608.498 131.625 603.85 132.188L603.245 140L591.204 139.104L591.788 131.479C586.703 130.344 581.947 128.056 577.89 124.792L572.256 129.583L564.388 120.396L569.96 115.688C567.032 110.876 565.347 105.414 565.056 99.7917L556.938 99.1667L557.836 87.1458L566.454 87.7917C567.878 83.0854 570.306 78.7428 573.57 75.0625L569.126 69.7083L578.474 62L583.003 67.5C587.274 65.095 592.03 63.6715 596.922 63.3333L597.548 55L609.589 55.8958L608.942 64.375C613.749 65.7138 618.207 68.0811 622.006 71.3125L628.621 65.7083L636.467 74.8958L629.789 80.5833C631.956 84.3387 633.373 88.4774 633.963 92.7708L641.997 93.3542ZM579.3 96.2429C578.445 107.436 586.838 117.203 598.049 118.062C603.443 118.487 608.784 116.747 612.889 113.228C616.995 109.708 619.524 104.7 619.919 99.3125C620.761 88.1186 612.358 78.3609 601.146 77.5136C589.934 76.6662 580.155 85.05 579.3 96.2429Z" fill="#505F98"/>
<path d="M704.04 260.513V267H215.702V260.513C215.691 255.614 217.617 250.912 221.056 247.44C224.495 243.968 229.166 242.011 234.041 242H685.701C690.578 242.006 695.252 243.961 698.692 247.434C702.133 250.907 704.057 255.613 704.04 260.513Z" fill="url(#paint9_linear_1027_2278)"/>
<rect x="225.709" y="299" width="47.0326" height="227" fill="url(#paint10_linear_1027_2278)"/>
<rect x="343.791" y="315" width="221.153" height="209" fill="url(#paint11_linear_1027_2278)"/>
<rect x="394.827" y="413" width="7.00485" height="9" fill="url(#paint12_linear_1027_2278)"/>
<rect x="394.827" y="371" width="7.00485" height="9" fill="url(#paint13_linear_1027_2278)"/>
<rect x="299.761" y="413" width="7.00485" height="9" fill="url(#paint14_linear_1027_2278)"/>
<rect x="299.761" y="371" width="7.00485" height="9" fill="url(#paint15_linear_1027_2278)"/>
<rect x="394.827" y="326" width="7.00485" height="9" fill="url(#paint16_linear_1027_2278)"/>
<rect x="300.761" y="326" width="7.00485" height="9" fill="url(#paint17_linear_1027_2278)"/>
<rect x="348.794" y="326" width="7.00485" height="9" fill="url(#paint18_linear_1027_2278)"/>
<rect x="348.794" y="413" width="7.00485" height="9" fill="url(#paint19_linear_1027_2278)"/>
<path fill-rule="evenodd" clip-rule="evenodd" d="M312.77 411H390.824V338H312.77V411ZM382.962 403.282H320.632V345.656H382.962V403.282Z" fill="#505F98"/>
<path fill-rule="evenodd" clip-rule="evenodd" d="M312.77 411H390.824V338H312.77V411ZM382.962 403.282H320.632V345.656H382.962V403.282Z" fill="url(#paint20_linear_1027_2278)"/>
<rect x="596.966" y="279" width="100.069" height="100" fill="url(#paint21_linear_1027_2278)"/>
<rect x="596.966" y="389" width="100.069" height="100" fill="url(#paint22_linear_1027_2278)"/>
<rect opacity="0.65" x="225.709" y="298" width="47.0326" height="13" fill="url(#paint23_linear_1027_2278)"/>
<path d="M22.6733 229.827L227.802 65.2927L275.914 125.118L70.7858 289.652L22.6733 229.827Z" fill="white"/>
<path d="M51.397 234.455L76.4644 214.235L109.047 254.522L83.9794 274.742L51.397 234.455Z" fill="#505F98"/>
<path d="M51.397 234.455L76.4644 214.235L109.047 254.522L83.9794 274.742L51.397 234.455Z" fill="url(#paint24_linear_1027_2278)"/>
<path d="M75.0146 214.689L100.047 194.56L132.482 234.79L107.45 254.919L75.0146 214.689Z" fill="#505F98"/>
<path d="M75.0146 214.689L100.047 194.56L132.482 234.79L107.45 254.919L75.0146 214.689Z" fill="url(#paint25_linear_1027_2278)"/>
<path d="M99.9585 194.761L124.991 174.633L157.426 214.863L132.393 234.991L99.9585 194.761Z" fill="#505F98"/>
<path d="M99.9585 194.761L124.991 174.633L157.426 214.863L132.393 234.991L99.9585 194.761Z" fill="url(#paint26_linear_1027_2278)"/>
<path d="M124.886 174.847L149.918 154.718L182.353 194.948L157.321 215.077L124.886 174.847Z" fill="#505F98"/>
<path d="M124.886 174.847L149.918 154.718L182.353 194.948L157.321 215.077L124.886 174.847Z" fill="url(#paint27_linear_1027_2278)"/>
<path d="M151.006 154.389L176.074 134.169L208.656 174.456L183.589 194.676L151.006 154.389Z" fill="#505F98"/>
<path d="M176.086 133.99L201.154 113.77L233.736 154.057L208.669 174.277L176.086 133.99Z" fill="#505F98"/>
<path d="M199.694 115.051L224.726 94.9226L257.161 135.153L232.129 155.281L199.694 115.051Z" fill="#505F98"/>
<path d="M229.712 158.218L208.613 175L176.675 134.782L197.774 118L229.712 158.218Z" fill="url(#paint28_linear_1027_2278)"/>
<path d="M196.737 117.648L221.769 97.519L254.204 137.749L229.172 157.878L196.737 117.648Z" fill="url(#paint29_linear_1027_2278)"/>
<path d="M145.654 239.15V362H124.639V239.15C124.639 234.61 127.458 230.57 131.658 229.089V216.825C131.658 214.712 133.333 213 135.401 213C137.468 213 139.144 214.712 139.144 216.825V229.297C143.063 230.935 145.632 234.823 145.654 239.15Z" fill="#505F98"/>
<path d="M145.654 239.15V362H124.639V239.15C124.639 234.61 127.458 230.57 131.658 229.089V216.825C131.658 214.712 133.333 213 135.401 213C137.468 213 139.144 214.712 139.144 216.825V229.297C143.063 230.935 145.632 234.823 145.654 239.15Z" fill="url(#paint30_linear_1027_2278)"/>
<rect x="111.63" y="317" width="50.0346" height="9" rx="2.245" fill="#505F98"/>
<path d="M136.336 399C127.763 399 120.637 386.185 120.637 377.634V321H151.658V377.634C151.658 386.185 144.888 399 136.336 399Z" fill="#505F98"/>
<rect x="111.63" y="317" width="50.0346" height="9" rx="2.245" fill="url(#paint31_linear_1027_2278)"/>
<path d="M136.336 399C127.763 399 120.637 386.366 120.637 377.937V326H151.658V377.937C151.658 386.366 144.888 399 136.336 399Z" fill="url(#paint32_linear_1027_2278)"/>
<path d="M336.428 459C335.755 455.436 335.33 450.39 336.623 450.043C339.351 449.275 336.428 459 336.428 459Z" fill="#28353D"/>
<path d="M479.687 654.507C479.201 667.102 469.439 713.388 469.122 726.004C469.122 730.202 470.242 736.647 468.89 740.698C466.1 749.284 456.211 748.108 454.922 743.049L454.436 740.53C449.851 716.012 457.226 688.198 454.436 656.186C452.767 636.643 444.991 598.963 439.898 598.711C437.215 598.711 375.957 727.851 370.632 735.807C368.012 739.817 360.637 739.187 357.066 742.42C353.495 745.652 386.818 644.515 400.786 591.07C404.043 580.039 406.167 568.709 407.125 557.252C407.505 550.64 405.371 548.415 411.478 546.463C415.704 545.119 421.557 545.497 426.079 545.182C431.002 544.804 476.792 544.72 476.792 547.953C476.349 565.502 480.871 625.412 479.687 654.507Z" fill="#606161"/>
<path d="M479.687 654.507C479.201 667.102 469.439 713.388 469.122 726.004C469.122 730.202 470.242 736.647 468.89 740.698C466.1 749.284 456.211 748.108 454.922 743.049L454.436 740.53C449.851 716.012 457.226 688.198 454.436 656.186C452.767 636.643 444.991 598.963 439.898 598.711C437.215 598.711 375.957 727.851 370.632 735.807C368.012 739.817 360.637 739.187 357.066 742.42C353.495 745.652 386.818 644.515 400.786 591.07C404.043 580.039 406.167 568.709 407.125 557.252C407.505 550.64 405.371 548.415 411.478 546.463C415.704 545.119 421.557 545.497 426.079 545.182C431.002 544.804 476.792 544.72 476.792 547.953C476.349 565.502 480.871 625.412 479.687 654.507Z" fill="url(#paint33_linear_1027_2278)"/>
<path d="M425.614 386.148C425.229 382.163 423.347 380 421.507 380C419.667 380 418.533 382.12 418.918 386.148C419.006 389.122 421.25 391.597 424.224 392C426.085 392 426.021 390.134 425.614 386.148Z" fill="#FFCD9C"/>
<path d="M458.008 386.159C458.258 382.166 460.095 380 461.994 380C463.893 380 465.124 382.124 464.832 386.159C464.806 389.173 462.56 391.687 459.615 392C457.737 392 457.716 390.152 458.008 386.159Z" fill="#FFCD9C"/>
<path d="M461.733 403.672C461.474 405.777 452.559 415 442.413 415C432.268 415 423.893 406.577 422.123 403.208C420.352 399.839 427.476 356.505 431.599 352.884C435.722 349.262 452.429 351.641 453.832 353.558C457.2 358.085 462.833 395.27 461.733 403.672Z" fill="#F4AD7D"/>
<path d="M457.538 370.977C456.159 371.639 450.744 357.842 449.608 355.525C448.472 353.208 448.654 350.829 450.034 350.167C451.413 349.505 453.441 350.871 454.577 353.167C455.713 355.463 458.897 370.336 457.538 370.977Z" fill="#FFCD9C"/>
<path d="M427.168 369.987C425.738 369.501 429.525 355.179 430.352 352.703C431.178 350.228 433.031 348.599 434.381 349.086C435.731 349.573 436.295 351.984 435.469 354.481C434.643 356.977 428.518 370.474 427.168 369.987Z" fill="#FFCD9C"/>
<path d="M432.845 402H454.609L457.87 422.622C446.014 429.005 439.102 428.301 429.851 421.214L432.845 402Z" fill="#F4AD7D"/>
<path d="M441.859 406.13C441.859 405.75 442.764 405.43 443.86 405.43C444.956 405.43 445.862 405.75 445.862 406.13C445.862 406.51 444.98 406.57 443.86 406.57C442.74 406.57 441.859 406.53 441.859 406.13Z" fill="#F4AD7D"/>
<path d="M462.892 396.808C463.716 391.894 465.06 356.708 461.765 352.051C458.47 347.394 438.741 344.381 435.75 345.108C429.051 346.731 430.221 351.517 430.221 351.517C428.23 351.547 426.281 352.084 424.563 353.076C422.265 354.615 417.43 376.79 421.289 393.56C423.024 401.102 429.853 407.66 441.646 407.981C456.172 408.365 461.895 402.896 462.892 396.808Z" fill="#606161"/>
<path d="M435.831 346.762C437.39 345.448 439.41 344.828 441.43 345.041C447.563 345.008 453.647 346.14 459.365 348.376C462.535 349.488 465.415 351.311 467.785 353.708C470.172 356.173 471.272 359.627 470.753 363.034C469.701 368.047 464.438 371.148 462.712 375.97C461.323 379.837 462.312 383.575 462.354 387.463C462.382 390.606 462.157 393.746 461.681 396.852C460.712 402.906 455.176 408.344 440.967 407.983C429.516 407.664 422.885 401.143 421.201 393.644C418.921 381.198 419.519 368.389 422.948 356.215C429.12 357.648 435.434 358.361 441.767 358.339C448.482 358.395 455.178 357.611 461.702 356.002C462.817 362.503 462.796 375.524 462.438 385.253" fill="#606161"/>
<path d="M400.703 418.954C397.268 419.241 393.96 420.384 391.077 422.28C386.14 426.171 385.765 433.43 385.848 439.748C385.679 448.501 386.285 457.252 387.661 465.897C389.14 473.826 391.827 481.441 394.036 489.202C397.517 501.831 399.345 514.862 399.473 527.966C399.473 535.162 399.348 543.07 403.828 548.697C408.724 554.806 417.39 555.998 425.182 556.438C436.245 557.086 447.35 557.17 458.412 556.709C465.829 556.375 473.725 555.643 479.6 551.082C484.288 547.442 495.267 424.288 486.746 421.171C478.225 418.054 469.058 417.259 460.017 416.506C439.745 414.791 420.661 413.431 400.703 418.954Z" fill="#505F98"/>
<path d="M464.522 674.291C463.435 688.255 460.843 739 460.843 739L454.238 738.77C449.702 714.39 456.997 686.732 454.238 654.899C452.587 635.465 444.895 597.996 439.857 597.746C441.362 585.221 449.828 587.1 449.828 587.1C455.984 596.294 461.294 606.026 465.692 616.178C470.73 629.37 465.629 660.263 464.522 674.291Z" fill="url(#paint34_linear_1027_2278)"/>
<path d="M340.165 740.024C339.133 740.786 338.351 741.83 337.913 743.025C337.678 744.009 337.773 745.04 338.184 745.965C339.35 748.326 341.561 750.019 344.168 750.55C346.745 751.04 349.383 751.131 351.988 750.818L360.328 750.262C362.451 750.212 364.556 749.873 366.584 749.255C368.614 748.627 370.29 747.198 371.213 745.308C371.704 743.916 371.896 742.438 371.776 740.969C371.776 734.164 369.357 728.634 361.809 730.299C353.902 731.765 346.475 735.102 340.165 740.024Z" fill="#505F98"/>
<path d="M478.703 743.063C479.651 743.759 480.369 744.709 480.77 745.797C480.984 746.682 480.9 747.611 480.531 748.446C479.468 750.584 477.439 752.114 475.048 752.579C472.69 753.035 470.274 753.121 467.889 752.834L460.316 752.325C458.39 752.284 456.479 751.985 454.637 751.435C452.78 750.864 451.251 749.566 450.416 747.853C449.968 746.595 449.79 745.26 449.893 743.932C449.893 737.785 452.069 732.72 459.011 734.288C466.207 735.619 472.964 738.63 478.703 743.063Z" fill="#505F98"/>
<path d="M487.891 421C487.891 421 520.607 440.163 530.432 464.389C540.258 488.614 498.253 547 498.253 547L489.264 537.814C489.264 537.814 511.189 493.759 507.799 482.74C504.41 471.721 491.131 461.452 491.131 461.452L487.891 421Z" fill="#505F98"/>
<path d="M394.826 458.859C394.826 458.859 349.338 479.24 330.853 469.238C312.368 459.237 331.398 409 331.398 409L343.778 413.202C343.778 413.202 333.434 438.815 345.267 442.618C357.101 446.421 392.56 421.438 392.56 421.438L394.826 458.859Z" fill="#505F98"/>
<path d="M480.467 545.976C479.158 546.826 478.098 547.968 477.382 549.297C476.952 550.425 476.797 551.629 476.929 552.819C476.849 555.709 478.164 558.479 480.51 560.367C482.158 561.25 484.005 561.76 485.903 561.857C487.066 562.048 488.256 562.048 489.42 561.857C490.606 561.646 491.597 560.888 492.052 559.844C492.207 559.183 492.272 558.507 492.246 557.831C492.397 554.51 494.899 551.793 496.97 549.076C497.47 548.551 497.793 547.9 497.898 547.204C497.886 546.434 497.597 545.69 497.078 545.091C495.676 543.199 492.203 539.717 489.42 540.018C486.637 540.32 482.624 544.326 480.467 545.976Z" fill="#F4AD7D"/>
<path d="M351.585 401.435C352.178 400.611 352.582 399.679 352.772 398.698C352.923 397.683 352.386 396.687 351.432 396.211C349.916 395.647 348.114 397.13 346.62 396.504C346.114 396.235 345.69 395.846 345.389 395.375C343.625 392.945 342.613 390.093 342.467 387.143C342.553 385.571 342.405 383.995 342.028 382.463C341.583 380.886 340 379.849 338.293 380.018C336.886 380.331 336.095 381.689 335.217 382.776C334.338 383.863 332.58 385.158 331.438 386.516C329.487 389.307 328.37 392.55 328.208 395.898C327.593 400.077 327.197 404.861 330.273 407.87C332.646 410.189 339.875 412.927 343.192 411.694C346.862 410.315 349.74 404.444 351.585 401.435Z" fill="#F4AD7D"/>
<defs>
<linearGradient id="paint0_linear_1027_2278" x1="151.402" y1="315.166" x2="216.157" y2="186.6" gradientUnits="userSpaceOnUse">
<stop stop-color="#010101" stop-opacity="0.01"/>
<stop offset="0.95" stop-color="#010101"/>
</linearGradient>
<linearGradient id="paint1_linear_1027_2278" x1="206.563" y1="311.365" x2="299.417" y2="129.775" gradientUnits="userSpaceOnUse">
<stop stop-color="#010101" stop-opacity="0.01"/>
<stop offset="0.95" stop-color="#010101"/>
</linearGradient>
<linearGradient id="paint2_linear_1027_2278" x1="326.545" y1="320.092" x2="463.899" y2="9.94817" gradientUnits="userSpaceOnUse">
<stop stop-color="#010101" stop-opacity="0.01"/>
<stop offset="0.95" stop-color="#010101"/>
</linearGradient>
<linearGradient id="paint3_linear_1027_2278" x1="454.38" y1="336.583" x2="659.31" y2="-110.821" gradientUnits="userSpaceOnUse">
<stop stop-color="#010101" stop-opacity="0.01"/>
<stop offset="0.36" stop-color="#010101" stop-opacity="0.36"/>
<stop offset="0.95" stop-color="#010101"/>
</linearGradient>
<linearGradient id="paint4_linear_1027_2278" x1="305.726" y1="231.564" x2="422.886" y2="-10.0312" gradientUnits="userSpaceOnUse">
<stop stop-color="white" stop-opacity="0.01"/>
<stop offset="0.07" stop-color="white" stop-opacity="0.22"/>
<stop offset="0.16" stop-color="white" stop-opacity="0.45"/>
<stop offset="0.25" stop-color="white" stop-opacity="0.65"/>
<stop offset="0.33" stop-color="white" stop-opacity="0.8"/>
<stop offset="0.4" stop-color="white" stop-opacity="0.91"/>
<stop offset="0.46" stop-color="white" stop-opacity="0.98"/>
<stop offset="0.51" stop-color="white"/>
</linearGradient>
<linearGradient id="paint5_linear_1027_2278" x1="227.65" y1="178.444" x2="291.847" y2="42.5549" gradientUnits="userSpaceOnUse">
<stop stop-color="white" stop-opacity="0.01"/>
<stop offset="0.07" stop-color="white" stop-opacity="0.22"/>
<stop offset="0.16" stop-color="white" stop-opacity="0.45"/>
<stop offset="0.25" stop-color="white" stop-opacity="0.65"/>
<stop offset="0.33" stop-color="white" stop-opacity="0.8"/>
<stop offset="0.4" stop-color="white" stop-opacity="0.91"/>
<stop offset="0.46" stop-color="white" stop-opacity="0.98"/>
<stop offset="0.51" stop-color="white"/>
</linearGradient>
<linearGradient id="paint6_linear_1027_2278" x1="532.972" y1="641.322" x2="543.393" y2="514.584" gradientUnits="userSpaceOnUse">
<stop stop-color="#010101" stop-opacity="0.01"/>
<stop offset="0.95" stop-color="#010101"/>
</linearGradient>
<linearGradient id="paint7_linear_1027_2278" x1="131.259" y1="178.517" x2="128.544" y2="628.071" gradientUnits="userSpaceOnUse">
<stop stop-color="white" stop-opacity="0.01"/>
<stop offset="0.07" stop-color="white" stop-opacity="0.22"/>
<stop offset="0.16" stop-color="white" stop-opacity="0.45"/>
<stop offset="0.25" stop-color="white" stop-opacity="0.65"/>
<stop offset="0.33" stop-color="white" stop-opacity="0.8"/>
<stop offset="0.4" stop-color="white" stop-opacity="0.91"/>
<stop offset="0.46" stop-color="white" stop-opacity="0.98"/>
<stop offset="0.51" stop-color="white"/>
</linearGradient>
<linearGradient id="paint8_linear_1027_2278" x1="-122.395" y1="616.073" x2="-122.295" y2="758.306" gradientUnits="userSpaceOnUse">
<stop stop-color="#010101" stop-opacity="0.01"/>
<stop offset="0.95" stop-color="#010101"/>
</linearGradient>
<linearGradient id="paint9_linear_1027_2278" x1="1030.02" y1="361.966" x2="1064.2" y2="-45.145" gradientUnits="userSpaceOnUse">
<stop stop-color="white" stop-opacity="0.01"/>
<stop offset="0.07" stop-color="white" stop-opacity="0.22"/>
<stop offset="0.16" stop-color="white" stop-opacity="0.45"/>
<stop offset="0.25" stop-color="white" stop-opacity="0.65"/>
<stop offset="0.33" stop-color="white" stop-opacity="0.8"/>
<stop offset="0.4" stop-color="white" stop-opacity="0.91"/>
<stop offset="0.46" stop-color="white" stop-opacity="0.98"/>
<stop offset="0.51" stop-color="white"/>
</linearGradient>
<linearGradient id="paint10_linear_1027_2278" x1="203.138" y1="251.87" x2="341.145" y2="620.142" gradientUnits="userSpaceOnUse">
<stop stop-color="white" stop-opacity="0.01"/>
<stop offset="0.07" stop-color="white" stop-opacity="0.22"/>
<stop offset="0.16" stop-color="white" stop-opacity="0.45"/>
<stop offset="0.25" stop-color="white" stop-opacity="0.65"/>
<stop offset="0.33" stop-color="white" stop-opacity="0.8"/>
<stop offset="0.4" stop-color="white" stop-opacity="0.91"/>
<stop offset="0.46" stop-color="white" stop-opacity="0.98"/>
<stop offset="0.51" stop-color="white"/>
</linearGradient>
<linearGradient id="paint11_linear_1027_2278" x1="306.669" y1="274.99" x2="303.343" y2="557.698" gradientUnits="userSpaceOnUse">
<stop stop-color="white" stop-opacity="0.01"/>
<stop offset="0.07" stop-color="white" stop-opacity="0.22"/>
<stop offset="0.16" stop-color="white" stop-opacity="0.45"/>
<stop offset="0.25" stop-color="white" stop-opacity="0.65"/>
<stop offset="0.33" stop-color="white" stop-opacity="0.8"/>
<stop offset="0.4" stop-color="white" stop-opacity="0.91"/>
<stop offset="0.46" stop-color="white" stop-opacity="0.98"/>
<stop offset="0.51" stop-color="white"/>
</linearGradient>
<linearGradient id="paint12_linear_1027_2278" x1="622.503" y1="466.704" x2="641.691" y2="-111.215" gradientUnits="userSpaceOnUse">
<stop stop-color="#010101" stop-opacity="0.01"/>
<stop offset="0.95" stop-color="#010101"/>
</linearGradient>
<linearGradient id="paint13_linear_1027_2278" x1="621.652" y1="467.045" x2="640.839" y2="-110.875" gradientUnits="userSpaceOnUse">
<stop stop-color="#010101" stop-opacity="0.01"/>
<stop offset="0.95" stop-color="#010101"/>
</linearGradient>
<linearGradient id="paint14_linear_1027_2278" x1="527.472" y1="464.354" x2="546.688" y2="-113.565" gradientUnits="userSpaceOnUse">
<stop stop-color="#010101" stop-opacity="0.01"/>
<stop offset="0.95" stop-color="#010101"/>
</linearGradient>
<linearGradient id="paint15_linear_1027_2278" x1="526.62" y1="464.694" x2="545.837" y2="-113.224" gradientUnits="userSpaceOnUse">
<stop stop-color="#010101" stop-opacity="0.01"/>
<stop offset="0.95" stop-color="#010101"/>
</linearGradient>
<linearGradient id="paint16_linear_1027_2278" x1="620.713" y1="468.545" x2="639.929" y2="-109.373" gradientUnits="userSpaceOnUse">
<stop stop-color="#010101" stop-opacity="0.01"/>
<stop offset="0.95" stop-color="#010101"/>
</linearGradient>
<linearGradient id="paint17_linear_1027_2278" x1="526.682" y1="466.236" x2="545.87" y2="-111.683" gradientUnits="userSpaceOnUse">
<stop stop-color="#010101" stop-opacity="0.01"/>
<stop offset="0.95" stop-color="#010101"/>
</linearGradient>
<linearGradient id="paint18_linear_1027_2278" x1="574.672" y1="467.396" x2="593.889" y2="-110.501" gradientUnits="userSpaceOnUse">
<stop stop-color="#010101" stop-opacity="0.01"/>
<stop offset="0.95" stop-color="#010101"/>
</linearGradient>
<linearGradient id="paint19_linear_1027_2278" x1="576.488" y1="464.843" x2="595.705" y2="-113.075" gradientUnits="userSpaceOnUse">
<stop stop-color="#010101" stop-opacity="0.01"/>
<stop offset="0.95" stop-color="#010101"/>
</linearGradient>
<linearGradient id="paint20_linear_1027_2278" x1="231.411" y1="479.399" x2="463.643" y2="696.094" gradientUnits="userSpaceOnUse">
<stop stop-color="white" stop-opacity="0.01"/>
<stop offset="0.07" stop-color="white" stop-opacity="0.22"/>
<stop offset="0.16" stop-color="white" stop-opacity="0.45"/>
<stop offset="0.25" stop-color="white" stop-opacity="0.65"/>
<stop offset="0.33" stop-color="white" stop-opacity="0.8"/>
<stop offset="0.4" stop-color="white" stop-opacity="0.91"/>
<stop offset="0.46" stop-color="white" stop-opacity="0.98"/>
<stop offset="0.51" stop-color="white"/>
</linearGradient>
<linearGradient id="paint21_linear_1027_2278" x1="580.278" y1="259.864" x2="578.492" y2="395.026" gradientUnits="userSpaceOnUse">
<stop stop-color="white" stop-opacity="0.01"/>
<stop offset="0.07" stop-color="white" stop-opacity="0.22"/>
<stop offset="0.16" stop-color="white" stop-opacity="0.45"/>
<stop offset="0.25" stop-color="white" stop-opacity="0.65"/>
<stop offset="0.33" stop-color="white" stop-opacity="0.8"/>
<stop offset="0.4" stop-color="white" stop-opacity="0.91"/>
<stop offset="0.46" stop-color="white" stop-opacity="0.98"/>
<stop offset="0.51" stop-color="white"/>
</linearGradient>
<linearGradient id="paint22_linear_1027_2278" x1="580.278" y1="369.864" x2="578.492" y2="505.026" gradientUnits="userSpaceOnUse">
<stop stop-color="white" stop-opacity="0.01"/>
<stop offset="0.07" stop-color="white" stop-opacity="0.22"/>
<stop offset="0.16" stop-color="white" stop-opacity="0.45"/>
<stop offset="0.25" stop-color="white" stop-opacity="0.65"/>
<stop offset="0.33" stop-color="white" stop-opacity="0.8"/>
<stop offset="0.4" stop-color="white" stop-opacity="0.91"/>
<stop offset="0.46" stop-color="white" stop-opacity="0.98"/>
<stop offset="0.51" stop-color="white"/>
</linearGradient>
<linearGradient id="paint23_linear_1027_2278" x1="216.437" y1="295.281" x2="216.42" y2="313.481" gradientUnits="userSpaceOnUse">
<stop stop-color="white" stop-opacity="0.01"/>
<stop offset="0.07" stop-color="white" stop-opacity="0.22"/>
<stop offset="0.16" stop-color="white" stop-opacity="0.45"/>
<stop offset="0.25" stop-color="white" stop-opacity="0.65"/>
<stop offset="0.33" stop-color="white" stop-opacity="0.8"/>
<stop offset="0.4" stop-color="white" stop-opacity="0.91"/>
<stop offset="0.46" stop-color="white" stop-opacity="0.98"/>
<stop offset="0.51" stop-color="white"/>
</linearGradient>
<linearGradient id="paint24_linear_1027_2278" x1="135.737" y1="348.052" x2="249.168" y2="258.635" gradientUnits="userSpaceOnUse">
<stop stop-color="#010101" stop-opacity="0.01"/>
<stop offset="0.95" stop-color="#010101"/>
</linearGradient>
<linearGradient id="paint25_linear_1027_2278" x1="185.576" y1="367.988" x2="346.852" y2="242.867" gradientUnits="userSpaceOnUse">
<stop stop-color="#010101" stop-opacity="0.01"/>
<stop offset="0.95" stop-color="#010101"/>
</linearGradient>
<linearGradient id="paint26_linear_1027_2278" x1="290.52" y1="426.751" x2="546.684" y2="204.028" gradientUnits="userSpaceOnUse">
<stop stop-color="#010101" stop-opacity="0.01"/>
<stop offset="0.95" stop-color="#010101"/>
</linearGradient>
<linearGradient id="paint27_linear_1027_2278" x1="399.279" y1="495.865" x2="774.962" y2="177.45" gradientUnits="userSpaceOnUse">
<stop stop-color="#010101" stop-opacity="0.01"/>
<stop offset="0.36" stop-color="#010101" stop-opacity="0.36"/>
<stop offset="0.95" stop-color="#010101"/>
</linearGradient>
<linearGradient id="paint28_linear_1027_2278" x1="247.538" y1="258.751" x2="430.477" y2="127.322" gradientUnits="userSpaceOnUse">
<stop stop-color="white" stop-opacity="0.01"/>
<stop offset="0.07" stop-color="white" stop-opacity="0.22"/>
<stop offset="0.16" stop-color="white" stop-opacity="0.45"/>
<stop offset="0.25" stop-color="white" stop-opacity="0.65"/>
<stop offset="0.33" stop-color="white" stop-opacity="0.8"/>
<stop offset="0.4" stop-color="white" stop-opacity="0.91"/>
<stop offset="0.46" stop-color="white" stop-opacity="0.98"/>
<stop offset="0.51" stop-color="white"/>
</linearGradient>
<linearGradient id="paint29_linear_1027_2278" x1="261.152" y1="256.517" x2="377.009" y2="160.658" gradientUnits="userSpaceOnUse">
<stop stop-color="white" stop-opacity="0.01"/>
<stop offset="0.07" stop-color="white" stop-opacity="0.22"/>
<stop offset="0.16" stop-color="white" stop-opacity="0.45"/>
<stop offset="0.25" stop-color="white" stop-opacity="0.65"/>
<stop offset="0.33" stop-color="white" stop-opacity="0.8"/>
<stop offset="0.4" stop-color="white" stop-opacity="0.91"/>
<stop offset="0.46" stop-color="white" stop-opacity="0.98"/>
<stop offset="0.51" stop-color="white"/>
</linearGradient>
<linearGradient id="paint30_linear_1027_2278" x1="126.738" y1="422.745" x2="164.923" y2="422.767" gradientUnits="userSpaceOnUse">
<stop stop-color="white" stop-opacity="0.01"/>
<stop offset="0.07" stop-color="white" stop-opacity="0.22"/>
<stop offset="0.16" stop-color="white" stop-opacity="0.45"/>
<stop offset="0.25" stop-color="white" stop-opacity="0.65"/>
<stop offset="0.33" stop-color="white" stop-opacity="0.8"/>
<stop offset="0.4" stop-color="white" stop-opacity="0.91"/>
<stop offset="0.46" stop-color="white" stop-opacity="0.98"/>
<stop offset="0.51" stop-color="white"/>
</linearGradient>
<linearGradient id="paint31_linear_1027_2278" x1="53.4463" y1="325.2" x2="65.0975" y2="363.932" gradientUnits="userSpaceOnUse">
<stop stop-color="#010101" stop-opacity="0.01"/>
<stop offset="0.95" stop-color="#010101"/>
</linearGradient>
<linearGradient id="paint32_linear_1027_2278" x1="78.2444" y1="473.933" x2="179.147" y2="475.976" gradientUnits="userSpaceOnUse">
<stop stop-color="#010101" stop-opacity="0.01"/>
<stop offset="0.95" stop-color="#010101"/>
</linearGradient>
<linearGradient id="paint33_linear_1027_2278" x1="481.016" y1="631.512" x2="384.922" y2="466.732" gradientUnits="userSpaceOnUse">
<stop stop-color="#010101" stop-opacity="0.01"/>
<stop offset="0.95" stop-color="#010101"/>
</linearGradient>
<linearGradient id="paint34_linear_1027_2278" x1="482.038" y1="169.892" x2="309.152" y2="174.761" gradientUnits="userSpaceOnUse">
<stop stop-color="#010101" stop-opacity="0.01"/>
<stop offset="0.95" stop-color="#010101"/>
</linearGradient>
</defs>
</svg>
